<svg width="32" height="32" viewBox="0 0 32 32" fill="none" xmlns="http://www.w3.org/2000/svg">
  <defs>
    <!-- Main Cobra Gradient -->
    <linearGradient id="faviconGradient" x1="0%" y1="0%" x2="100%" y2="100%">
      <stop offset="0%" style="stop-color:#06B6D4;stop-opacity:1" />
      <stop offset="50%" style="stop-color:#3B82F6;stop-opacity:1" />
      <stop offset="100%" style="stop-color:#8B5CF6;stop-opacity:1" />
    </linearGradient>
    
    <!-- Frame Gradient -->
    <linearGradient id="faviconFrame" x1="0%" y1="0%" x2="100%" y2="100%">
      <stop offset="0%" style="stop-color:#06B6D4;stop-opacity:0.8" />
      <stop offset="100%" style="stop-color:#8B5CF6;stop-opacity:0.8" />
    </linearGradient>
    
    <!-- Eyes -->
    <radialGradient id="faviconEye" cx="50%" cy="50%" r="50%">
      <stop offset="0%" style="stop-color:#06B6D4;stop-opacity:1" />
      <stop offset="100%" style="stop-color:#1E40AF;stop-opacity:1" />
    </radialGradient>
  </defs>
  
  <!-- Outer Frame -->
  <circle cx="16" cy="16" r="14" 
          fill="none" 
          stroke="url(#faviconFrame)" 
          stroke-width="1.5" 
          opacity="0.8"/>
  
  <!-- Inner Frame -->
  <circle cx="16" cy="16" r="10" 
          fill="none" 
          stroke="url(#faviconFrame)" 
          stroke-width="1" 
          opacity="0.6"/>
  
  <!-- Cardinal Points -->
  <circle cx="16" cy="4" r="1.5" fill="url(#faviconFrame)" opacity="0.8"/>
  <circle cx="16" cy="28" r="1.5" fill="url(#faviconFrame)" opacity="0.8"/>
  <circle cx="4" cy="16" r="1.5" fill="url(#faviconFrame)" opacity="0.8"/>
  <circle cx="28" cy="16" r="1.5" fill="url(#faviconFrame)" opacity="0.8"/>
  
  <!-- Main Cobra -->
  <path d="M16 6 C10 6, 6 10, 6 16 C6 22, 10 26, 16 26 C22 26, 26 22, 26 16 C26 10, 22 6, 16 6 Z" 
        fill="url(#faviconGradient)"/>
  
  <!-- Cobra Hood -->
  <ellipse cx="16" cy="12" rx="4" ry="3" fill="url(#faviconGradient)"/>
  
  <!-- Eyes -->
  <circle cx="14" cy="10" r="1.2" fill="url(#faviconEye)"/>
  <circle cx="18" cy="10" r="1.2" fill="url(#faviconEye)"/>
  
  <!-- Eye Highlights -->
  <circle cx="14" cy="10" r="0.5" fill="#06B6D4" opacity="0.9"/>
  <circle cx="18" cy="10" r="0.5" fill="#06B6D4" opacity="0.9"/>
  
  <!-- Central Network Dots -->
  <circle cx="16" cy="14" r="0.6" fill="#06B6D4" opacity="0.8"/>
  <circle cx="14" cy="16" r="0.6" fill="#3B82F6" opacity="0.8"/>
  <circle cx="18" cy="16" r="0.6" fill="#3B82F6" opacity="0.8"/>
  <circle cx="16" cy="18" r="0.6" fill="#8B5CF6" opacity="0.8"/>
</svg>